<svg width="37" height="38" viewBox="0 0 37 38" fill="none" xmlns="http://www.w3.org/2000/svg">
<g clip-path="url(#clip0_77_597)">
<path d="M18.5011 0.711456C13.5203 0.711456 12.8952 0.733174 10.939 0.82195C8.98653 0.911107 7.65383 1.21934 6.48773 1.6716C5.2815 2.13872 4.25829 2.76358 3.23891 3.7805C2.21875 4.79704 1.59214 5.81739 1.12219 7.01986C0.667512 8.18309 0.358028 9.51244 0.27015 11.4586C0.182654 13.4094 0.159729 14.0331 0.159729 19C0.159729 23.9669 0.18189 24.5883 0.270532 26.5391C0.360321 28.486 0.669423 29.815 1.12257 30.9778C1.59138 32.1807 2.21799 33.201 3.23776 34.2176C4.25677 35.2349 5.27997 35.8613 6.48544 36.3284C7.65231 36.7807 8.98538 37.0889 10.9374 37.178C12.8937 37.2668 13.5184 37.2885 18.4988 37.2885C23.4799 37.2885 24.1031 37.2668 26.0594 37.178C28.0118 37.0889 29.346 36.7807 30.5129 36.3284C31.7187 35.8613 32.7404 35.2349 33.7594 34.2176C34.7796 33.201 35.4062 32.1807 35.8761 30.9782C36.327 29.815 36.6365 28.4857 36.7282 26.5394C36.816 24.5887 36.839 23.9669 36.839 19C36.839 14.0331 36.816 13.4098 36.7282 11.459C36.6365 9.51205 36.327 8.18309 35.8761 7.02024C35.4062 5.81739 34.7796 4.79704 33.7594 3.7805C32.7393 2.7632 31.7191 2.13834 30.5117 1.6716C29.3426 1.21934 28.0091 0.911107 26.0567 0.82195C24.1004 0.733174 23.4776 0.711456 18.4953 0.711456H18.5011ZM16.8558 4.0072C17.3441 4.00644 17.889 4.0072 18.5011 4.0072C23.3978 4.0072 23.9782 4.02473 25.9119 4.11236C27.7 4.1939 28.6705 4.49185 29.317 4.74217C30.1728 5.07365 30.783 5.46991 31.4245 6.11C32.0664 6.7501 32.4638 7.35972 32.7969 8.21319C33.048 8.8571 33.3471 9.82486 33.4285 11.608C33.5164 13.5359 33.5355 14.1151 33.5355 18.9958C33.5355 23.8766 33.5164 24.4557 33.4285 26.3836C33.3468 28.1667 33.048 29.1345 32.7969 29.7784C32.4645 30.6319 32.0664 31.2396 31.4245 31.8793C30.7826 32.5194 30.1732 32.9157 29.317 33.2472C28.6713 33.4986 27.7 33.7958 25.9119 33.8773C23.9786 33.965 23.3978 33.984 18.5011 33.984C13.604 33.984 13.0236 33.965 11.0903 33.8773C9.30212 33.795 8.33164 33.4971 7.68478 33.2468C6.82892 32.9153 6.2176 32.519 5.5757 31.8789C4.93381 31.2388 4.53645 30.6307 4.20328 29.7769C3.95225 29.133 3.65308 28.1652 3.5717 26.3821C3.48382 24.4542 3.46624 23.875 3.46624 18.9912C3.46624 14.1074 3.48382 13.5313 3.5717 11.6034C3.65346 9.82029 3.95225 8.85252 4.20328 8.20785C4.53568 7.35439 4.93381 6.74477 5.5757 6.10467C6.2176 5.46457 6.82892 5.06832 7.68478 4.73608C8.33126 4.48461 9.30212 4.18742 11.0903 4.10551C12.7821 4.0293 13.4378 4.00644 16.8558 4.00263V4.0072ZM28.2907 7.04386C27.0757 7.04386 26.0899 8.02573 26.0899 9.23773C26.0899 10.4493 27.0757 11.4324 28.2907 11.4324C29.5057 11.4324 30.4915 10.4493 30.4915 9.23773C30.4915 8.02611 29.5057 7.0431 28.2907 7.0431V7.04386ZM18.5011 9.60807C13.2998 9.60807 9.08281 13.8133 9.08281 19C9.08281 24.1867 13.2998 28.39 18.5011 28.39C23.7023 28.39 27.9178 24.1867 27.9178 19C27.9178 13.8133 23.7023 9.60807 18.5011 9.60807ZM18.5011 12.9038C21.8771 12.9038 24.6143 15.633 24.6143 19C24.6143 22.3666 21.8771 25.0962 18.5011 25.0962C15.1246 25.0962 12.3878 22.3666 12.3878 19C12.3878 15.633 15.1246 12.9038 18.5011 12.9038Z" fill="white"/>
</g>
<defs>
<clipPath id="clip0_77_597">
<rect width="36.6803" height="36.5767" fill="white" transform="translate(0.159851 0.711609)"/>
</clipPath>
</defs>
</svg>
