<svg width="37" height="38" viewBox="0 0 37 38" fill="none" xmlns="http://www.w3.org/2000/svg">
<g clip-path="url(#clip0_77_596)">
<path d="M0 19C0 28.0527 6.60226 35.551 15.3136 37.1055L15.422 37.017C15.4164 37.016 15.4108 37.015 15.4053 37.014L15.4053 24.1207L10.8204 24.1207V19L15.4053 19L15.4053 14.9766C15.4053 10.4045 18.3396 7.84412 22.5577 7.84412C23.8415 7.84412 25.3087 8.027 26.5924 8.20989L26.5924 12.8734H24.2083C22.0075 12.8734 21.4574 13.9707 21.4574 15.4338V19H26.3174L25.4921 24.1207H21.4574L21.4574 37.014C21.4015 37.0242 21.3456 37.034 21.2898 37.0436L21.3657 37.1055C30.077 35.551 36.6792 28.0527 36.6792 19C36.6792 8.94143 28.4264 0.71167 18.3396 0.71167C8.25283 0.71167 0 8.94143 0 19Z" fill="white"/>
</g>
<defs>
<clipPath id="clip0_77_596">
<rect width="36.6792" height="36.5767" fill="white" transform="translate(0 0.71167)"/>
</clipPath>
</defs>
</svg>
